<svg id="Capa_1" enable-background="new 0 0 512.002 512.002" height="512" viewBox="0 0 512.002 512.002" width="512" xmlns="http://www.w3.org/2000/svg"><g><path d="m396.602 448.999 20.506.707.707 20.506 41.79 41.79 52.397-52.397-41.79-41.79-20.506-.707-.707-20.506-53.733-53.733-52.397 52.397z" fill="#703700"/><path d="m396.602 448.999 20.506.707.707 20.506 41.79 41.79 26.199-26.198-116.737-116.737-26.198 26.199z" fill="#bd6100"/><path d="m0 104.793 332.192 301.093 73.694-73.694-301.093-332.192h-104.793z" fill="#b0b0e2"/><path d="m0 104.793 332.192 301.093 36.847-36.847-369.039-369.039z" fill="#cecee6"/><path d="m271.685 432.749 54.906.007 106.165-106.165-.007-54.906h-29.995v42.483l-88.586 88.586h-42.483z" fill="#e7e7f2"/><path d="m271.685 432.749 54.906.007 53.083-53.082-21.213-21.213-44.293 44.293h-42.483z" fill="#f2f2f2"/><path d="m396.357 418.407h74.1v30h-74.1z" fill="#f79406" transform="matrix(.707 -.707 .707 .707 -179.523 433.407)"/><path d="m401.783 431.506h37.05v30h-37.05z" fill="#ffbb10" transform="matrix(.707 -.707 .707 .707 -192.622 427.981)"/><path d="m115.4 448.999-20.506.707-.707 20.506-41.79 41.79-52.397-52.397 41.79-41.79 20.506-.707.707-20.506 53.733-53.733 52.397 52.397z" fill="#bd6100"/><path d="m115.4 448.999-20.506.707-.707 20.506-41.79 41.79-26.199-26.198 116.737-116.737 26.198 26.199z" fill="#703700"/><path d="m512.002 104.793-332.192 301.093-73.694-73.694 301.093-332.192h104.793z" fill="#f2f2f2"/><path d="m512.002 104.793-332.192 301.093-36.847-36.847 369.039-369.039z" fill="#e7e7f2"/><path d="m240.317 432.749-54.907.007-106.165-106.165.007-54.906h29.996v42.483l88.586 88.586h42.483z" fill="#e7e7f2"/><path d="m240.317 432.749-54.907.007-53.082-53.082 21.213-21.213 44.293 44.293h42.483z" fill="#cecee6"/><path d="m63.595 396.357h30v74.1h-30z" fill="#ffbb10" transform="matrix(.707 -.707 .707 .707 -283.445 182.517)"/><path d="m76.694 427.981h30v37.05h-30z" fill="#f79406" transform="matrix(.707 -.707 .707 .707 -288.871 195.616)"/></g></svg>